<?xml version="1.0" standalone="no"?>
<!DOCTYPE svg PUBLIC "-//W3C//DTD SVG 20010904//EN"
 "http://www.w3.org/TR/2001/REC-SVG-20010904/DTD/svg10.dtd">
<svg version="1.0" xmlns="http://www.w3.org/2000/svg"
 width="239.000000pt" height="237.000000pt" viewBox="0 0 239.000000 237.000000"
 preserveAspectRatio="xMidYMid meet">

<g transform="translate(0.000000,237.000000) scale(0.100000,-0.100000)"
fill="#000000" stroke="none">
<path d="M1180 2205 l0 -135 43 0 c65 0 205 -25 277 -50 268 -93 473 -308 556
-585 24 -80 27 -107 28 -240 1 -128 -3 -162 -22 -228 -93 -323 -327 -550 -652
-633 -106 -27 -304 -25 -415 5 -195 52 -360 162 -491 328 l-26 32 34 33 c19
18 43 55 53 81 31 82 23 90 -155 179 -154 76 -201 89 -233 66 -19 -15 -157
-305 -157 -331 0 -10 5 -27 10 -38 15 -28 103 -69 147 -69 35 0 41 -4 70 -52
107 -179 322 -356 536 -444 544 -221 1179 16 1449 541 322 628 10 1390 -662
1615 -95 32 -251 60 -337 60 l-53 0 0 -135z"/>
<path d="M699 1730 c-9 -5 -22 -23 -29 -39 -10 -26 -10 -35 6 -60 31 -48 355
-391 370 -391 11 0 13 -9 8 -40 -15 -94 53 -180 150 -188 101 -8 180 61 182
161 0 40 5 50 30 70 87 65 265 223 270 240 10 31 -27 72 -67 75 -30 2 -48 -10
-164 -108 -71 -61 -133 -116 -136 -122 -5 -8 -16 -8 -38 2 -20 8 -50 10 -82 7
-49 -6 -51 -5 -82 31 -52 60 -308 336 -329 355 -22 19 -63 22 -89 7z"/>
</g>
</svg>
