<?xml version="1.0" encoding="UTF-8"?>
<svg xmlns="http://www.w3.org/2000/svg" xmlns:xlink="http://www.w3.org/1999/xlink" width="456px" height="456px" viewBox="0 0 456 456" version="1.1">
<g id="surface1">
<path style=" stroke:none;fill-rule:nonzero;fill:rgb(100%,100%,100%);fill-opacity:1;" d="M 224.949219 31.773438 L 224.949219 57.769531 L 233.148438 57.769531 C 245.539062 57.769531 272.226562 62.585938 285.953125 67.398438 C 337.042969 85.308594 376.125 126.710938 391.945312 180.050781 C 396.523438 195.457031 397.09375 200.65625 397.285156 226.265625 C 397.476562 250.914062 396.710938 257.460938 393.089844 270.171875 C 375.359375 332.371094 330.753906 376.085938 268.796875 392.066406 C 248.589844 397.265625 210.84375 396.882812 189.683594 391.105469 C 152.507812 381.089844 121.054688 359.910156 96.082031 327.941406 L 91.125 321.78125 L 97.605469 315.425781 C 101.226562 311.960938 105.800781 304.835938 107.710938 299.828125 C 113.617188 284.039062 112.09375 282.496094 78.160156 265.359375 C 48.800781 250.722656 39.84375 248.21875 33.742188 252.648438 C 30.121094 255.539062 3.8125 311.382812 3.8125 316.386719 C 3.8125 318.3125 4.765625 321.585938 5.71875 323.707031 C 8.578125 329.097656 25.355469 336.992188 33.742188 336.992188 C 40.414062 336.992188 41.558594 337.761719 47.085938 347.007812 C 67.484375 381.476562 108.472656 415.5625 149.265625 432.507812 C 252.972656 475.0625 374.027344 429.425781 425.5 328.328125 C 486.882812 207.394531 427.40625 60.660156 299.296875 17.332031 C 281.1875 11.167969 251.449219 5.777344 235.054688 5.777344 L 224.949219 5.777344 Z M 224.949219 31.773438 "/>
<path style=" stroke:none;fill-rule:nonzero;fill:rgb(100%,100%,100%);fill-opacity:1;" d="M 133.253906 123.242188 C 131.539062 124.207031 129.058594 127.671875 127.726562 130.753906 C 125.820312 135.761719 125.820312 137.492188 128.871094 142.308594 C 134.777344 151.550781 196.546875 217.601562 199.40625 217.601562 C 201.5 217.601562 201.882812 219.335938 200.929688 225.304688 C 198.070312 243.40625 211.035156 259.964844 229.523438 261.507812 C 248.777344 263.046875 263.839844 249.761719 264.222656 230.503906 C 264.222656 222.800781 265.175781 220.875 269.941406 217.023438 C 286.523438 204.507812 320.457031 174.082031 321.410156 170.808594 C 323.316406 164.835938 316.265625 156.941406 308.640625 156.363281 C 302.917969 155.980469 299.488281 158.289062 277.375 177.164062 C 263.839844 188.910156 252.019531 199.5 251.449219 200.65625 C 250.496094 202.195312 248.398438 202.195312 244.203125 200.269531 C 240.390625 198.730469 234.671875 198.34375 228.570312 198.921875 C 219.230469 200.078125 218.847656 199.886719 212.941406 192.953125 C 203.027344 181.398438 154.222656 128.25 150.222656 124.589844 C 146.027344 120.933594 138.210938 120.355469 133.253906 123.242188 Z M 133.253906 123.242188 "/>
</g>
</svg>
