<?xml version="1.0" standalone="no"?>
<!DOCTYPE svg PUBLIC "-//W3C//DTD SVG 20010904//EN"
 "http://www.w3.org/TR/2001/REC-SVG-20010904/DTD/svg10.dtd">
<svg version="1.0" xmlns="http://www.w3.org/2000/svg"
 width="400.000000pt" height="400.000000pt" viewBox="0 0 400.000000 400.000000"
 preserveAspectRatio="xMidYMid meet">

<g transform="translate(0.000000,400.000000) scale(0.100000,-0.100000)"
fill="#FFFFFF" stroke="none">
<path d="M1990 2861 l0 -111 44 0 c60 0 179 -24 248 -50 132 -49 291 -185 367
-314 19 -32 48 -94 65 -139 29 -79 30 -89 30 -242 0 -149 -2 -165 -27 -234
-74 -203 -201 -348 -382 -436 -114 -56 -194 -75 -321 -75 -222 0 -415 89 -567
263 l-57 64 35 37 c42 45 64 108 45 131 -23 28 -249 135 -286 135 -32 0 -36
-4 -73 -77 -71 -143 -93 -201 -81 -223 13 -24 80 -60 113 -60 31 0 47 -15 90
-80 81 -125 267 -275 421 -339 126 -52 195 -65 356 -65 175 -1 262 19 416 94
305 148 493 418 535 769 32 274 -78 581 -282 782 -160 158 -377 256 -610 275
l-79 7 0 -112z"/>
<path d="M1574 2435 c-13 -20 -14 -31 -7 -48 12 -25 230 -265 286 -314 33 -29
37 -37 37 -83 0 -43 5 -55 34 -88 33 -35 38 -37 96 -37 58 0 63 2 96 37 27 30
34 46 34 79 0 37 5 46 42 78 183 158 217 192 211 209 -8 23 -33 42 -54 42 -19
0 -112 -72 -194 -151 l-50 -47 -76 6 -76 7 -152 168 c-130 142 -157 167 -182
167 -20 0 -34 -8 -45 -25z"/>
</g>
</svg>
